
<svg width="58px" height="115px" viewBox="0 0 58 115" version="1.1" xmlns="http://www.w3.org/2000/svg" xmlns:xlink="http://www.w3.org/1999/xlink">
    <!-- Generator: Sketch 44.1 (41455) - http://www.bohemiancoding.com/sketch -->
    <desc>Created with Sketch.</desc>
    <defs>
        <linearGradient x1="43.6757859%" y1="43.220338%" x2="63.5804176%" y2="-22.033899%" id="linearGradient-1">
            <stop stop-color="#FFFFFF" stop-opacity="0.52499998" offset="0%"></stop>
            <stop stop-color="#FFFFFF" stop-opacity="0" offset="100%"></stop>
        </linearGradient>
        <linearGradient x1="4.9005938e-15%" y1="50%" x2="100%" y2="50%" id="linearGradient-2">
            <stop stop-color="#FFFFFF" stop-opacity="0" offset="0%"></stop>
            <stop stop-color="#5F0E00" stop-opacity="0.41666666" offset="100%"></stop>
        </linearGradient>
    </defs>
    <g id="Page-1" stroke="none" stroke-width="1" fill="none" fill-rule="evenodd">
        <g id="banana" transform="translate(17.000000, 58.500000) rotate(-61.000000) translate(-17.000000, -58.500000) translate(-33.000000, 21.000000)">
            <path d="M84.2074266,6.07643365 C79.8042525,1.88708194 91.5460501,-1.10531214 93.0137748,0.390884903 C95.3621343,1.58784253 90.9589602,2.48556076 91.2525051,4.58023661 C91.5460501,6.67491246 91.2525051,17.7467705 93.6008647,18.3452494 C95.9492242,18.9437282 98.8846736,21.038404 98.8846736,24.0307981 C106.223297,42.5836414 77.4558929,93.4543407 9.35346682,68.018991 C8.17928706,67.1212728 1.72129838,59.6402876 0.547118617,57.8448512 C-0.0399712638,55.7501753 -0.920606084,50.6631054 2.6019332,48.8676689 C32.837062,40.7882049 67.7689099,56.6478935 83.6203367,20.4399252 C86.2622412,14.1558977 84.2074266,6.07643365 84.2074266,6.07643365 Z" id="path847" stroke="#000000" stroke-width="5" fill="#FFE200" stroke-linejoin="round"></path>
            <path d="M3.45474012,53.1037445 L4.04028255,50.1230492 C25.7053523,41.7771022 65.8150084,59.3632047 85.1379084,21.5083739 C75.4764584,48.334632 58.4957281,64.7284563 3.45474012,53.1037445 Z" id="path849" fill="url(#linearGradient-1)"></path>
            <path d="M83.592453,5.38603699 C84.2889299,1.01986532 90.549107,0.902545096 92.3012006,0.686387301 C95.1651687,1.07494735 88.6005421,6.00621844 83.592453,5.38603699 Z" id="path851" fill="#442400"></path>
            <path d="M0.513496336,56.6878418 C0.279577907,52.2323347 0.0456572218,50.7629052 2.70647652,49.2934756 C3.86437132,50.9731404 3.6469774,56.1744259 0.513496336,56.6878418 Z" id="path852" fill="#442400"></path>
            <path d="M19.9439227,71.5246541 C70.3205423,70.923127 90.6267728,50.338249 94.4266717,46.6463199 C100.542787,42.8546628 98.2265645,37.7238052 98.2265645,37.7238052 C95.1690568,52.0415087 59.6873221,71.7531187 19.9439227,71.5246541 Z" id="path853" fill="url(#linearGradient-2)"></path>
        </g>
    </g>
</svg>
